<?xml version="1.0" encoding="UTF-8"?>
<svg id="Layer_1" data-name="Layer 1" xmlns="http://www.w3.org/2000/svg" viewBox="0 0 1247.02 800">
  <defs>
    <style>
      .cls-1 {
        fill: #c2a03a;
      }
    </style>
  </defs>
  <path class="cls-1" d="M629,800h-182.34L243.84,479h183.58l201.57,321Zm-201.57-321H243.84l202.81,321h182.34l-201.57-321ZM157,157V0H0V800H157V157Zm503.66,160c10-29.97,14.22-59.75,12.69-89.34-1.53-29.59-8.27-58.02-20.17-85.3-11.92-27.28-28.45-51.5-49.59-72.62-21.14-21.12-45.92-38.03-74.36-50.72S469.27,0,434.67,0H157V157H434.88c22.28,0,41.5,8.08,57.64,24.23,16.14,16.16,24.22,35.77,24.22,58.84s-8.08,41.53-24.22,57.69c-16.14,16.16-35.36,24.23-57.64,24.23H0v157H424.05c103.38,0,153.02-36.48,187.03-79,23.06-25.38,39.58-53.03,49.58-83Zm0,0c10-29.97,14.22-59.75,12.69-89.34-1.53-29.59-8.27-58.02-20.17-85.3-11.92-27.28-28.45-51.5-49.59-72.62-21.14-21.12-45.92-38.03-74.36-50.72S469.27,0,434.67,0H157V157H434.88c22.28,0,41.5,8.08,57.64,24.23,16.14,16.16,24.22,35.77,24.22,58.84s-8.08,41.53-24.22,57.69c-16.14,16.16-35.36,24.23-57.64,24.23H0v157H424.05c103.38,0,153.02-36.48,187.03-79,23.06-25.38,39.58-53.03,49.58-83Zm-503.66,195.92v-33.92H0l157,33.92Zm270.43-33.92H243.84l21.96,34.76,161.62-34.76ZM157,157h24.23L157,0V157Zm976.77,197.63h-42.75v445h156V354.63h-113.25Zm0,0h-42.75v445h156V354.63h-113.25Zm-635.41,121.98c8.45,44.58,24.22,86.45,47.28,125.61,23.06,39.16,51.69,73.27,85.89,102.3,34.2,29.03,73.41,52.14,117.61,69.33,44.19,17.19,91.66,25.78,142.41,25.78h199.47v-157h-199.47c-46.91,0-88.61-11.33-125.11-34-36.52-22.67-64.95-51.5-85.33-86.47-17.05-29.26-27.6-61.23-31.73-95.87h-157.35c1.07,16.91,3.17,33.68,6.33,50.32Zm0,0c8.45,44.58,24.22,86.45,47.28,125.61,23.06,39.16,51.69,73.27,85.89,102.3,34.2,29.03,73.41,52.14,117.61,69.33,44.19,17.19,91.66,25.78,142.41,25.78h199.47v-157h-199.47c-46.91,0-88.61-11.33-125.11-34-36.52-22.67-64.95-51.5-85.33-86.47-17.05-29.26-27.6-61.23-31.73-95.87h-157.35c1.07,16.91,3.17,33.68,6.33,50.32ZM770.47,188.94c37.66-20.38,76.86-30.94,117.61-31.72,40.73-.77,80.12,8.66,118.19,28.25,38.05,19.61,69,49.39,92.84,89.36l135.19-80.72c-26.19-43.81-57.97-80.12-95.33-108.95-37.36-28.81-77.56-50.34-120.61-64.56C975.32,6.38,931.12-.34,885.77,.43c-45.34,.77-89.16,8.64-131.44,23.62-42.28,15-81.67,37.48-118.17,67.45-36.52,29.98-67.45,67.27-92.83,111.84-25.38,44.59-41.31,90.14-47.84,136.64-4.09,29.14-5.24,57.91-3.45,86.3h157.35c-.81-6.76-1.39-13.62-1.71-20.58-1.92-42.66,8.66-84.36,31.72-125.11,23.06-40.73,53.42-71.28,91.08-91.66Zm76.11,165.69v156h400.44v-156h-400.44Zm0,0v156h400.44v-156h-400.44Zm400.44,156h-156v33.92l156-33.92Zm-597.64-84.34h-157.35l165.06,39.08c-3.54-12.63-6.12-25.65-7.72-39.08Zm441.64,216.34h-17.16l17.16,157v-157Z"/>
</svg>